PathFileType  4	(X/Y/Z) C:\PlaceHolderFilePath\
DataRate	CameraRate	NumFrames	NumMarkers	Units	OrigDataRate	OrigDataStartFrame	OrigNumFrames
  240.0		  240.0		   4		     47	     mm	  240.0	      2087	   2384
Frame#	Time	R_acr			L_acr			back_T			back_mid			back_B			R_asis			L_asis			R_psis			L_psis			R_ilium			L_ilium			R_thigh_TA			R_thigh_TP			R_thigh_BA			R_thigh_BP			R_kneejoint_LA			R_tibtub			R_shank_TA			R_shank_TP			R_shank_BA			R_shank_BP			R_fibula			R_ankle_LA			R_heel_T			R_heel_LA			R_heel_B			R_latfoot			R_met_5			R_toe			L_thigh_TA			L_thigh_TP			L_thigh_BA			L_thigh_BP			L_kneejoint_LA			L_tibtub			L_shank_TA			L_shank_TP			L_shank_BA			L_shank_BP			L_fibula			L_ankle_LA			L_heel_T			L_heel_LA			L_heel_B			L_latfoot			L_met_5			L_toe			
		X1	Y1	Z1	X2	Y2	Z2	X3	Y3	Z3	X4	Y4	Z4	X5	Y5	Z5	X6	Y6	Z6	X7	Y7	Z7	X8	Y8	Z8	X9	Y9	Z9	X10	Y10	Z10	X11	Y11	Z11	X12	Y12	Z12	X13	Y13	Z13	X14	Y14	Z14	X15	Y15	Z15	X16	Y16	Z16	X17	Y17	Z17	X18	Y18	Z18	X19	Y19	Z19	X20	Y20	Z20	X21	Y21	Z21	X22	Y22	Z22	X23	Y23	Z23	X24	Y24	Z24	X25	Y25	Z25	X26	Y26	Z26	X27	Y27	Z27	X28	Y28	Z28	X29	Y29	Z29	X30	Y30	Z30	X31	Y31	Z31	X32	Y32	Z32	X33	Y33	Z33	X34	Y34	Z34	X35	Y35	Z35	X36	Y36	Z36	X37	Y37	Z37	X38	Y38	Z38	X39	Y39	Z39	X40	Y40	Z40	X41	Y41	Z41	X42	Y42	Z42	X43	Y43	Z43	X44	Y44	Z44	X45	Y45	Z45	X46	Y46	Z46	X47	Y47	Z47	

2087	8.691670	793.061000	1564.082000	826.155000	797.158000	1582.521000	525.572000	683.379000	1303.357000	643.597000	698.367000	1236.348000	619.001000	700.263000	1205.970000	687.290000	911.434000	1057.395000	791.649000	928.257000	1030.301000	551.704000	710.224000	1080.197000	706.233000	718.644000	1069.156000	607.024000	709.632000	1048.950000	771.480000	726.840000	1024.233000	553.153000	943.119000	724.480000	839.567000	870.610000	704.535000	834.299000	968.881000	660.299000	824.090000	891.659000	639.586000	822.102000	943.079000	516.870000	797.261000	980.701000	453.377000	745.809000	909.065000	380.952000	794.899000	839.228000	401.830000	803.173000	874.575000	322.406000	783.303000	821.282000	351.573000	792.722000	773.950000	215.210000	748.085000	724.613000	121.957000	728.226000	658.173000	105.191000	684.873000	661.921000	62.368000	720.015000	644.259000	55.901000	678.998000	782.456000	67.501000	749.093000	826.126000	35.719000	769.438000	940.867000	66.269000	703.893000	1008.584000	712.345000	519.346000	938.856000	686.542000	502.087000	1028.162000	644.564000	523.839000	955.516000	617.111000	512.109000	987.496000	509.524000	530.027000	971.401000	440.709000	577.064000	867.930000	482.188000	518.908000	850.485000	548.931000	534.322000	802.726000	471.958000	528.792000	800.242000	536.369000	538.871000	656.739000	478.265000	552.580000	560.750000	473.014000	559.649000	549.809000	522.024000	606.683000	509.358000	512.711000	569.085000	500.037000	532.661000	605.279000	512.545000	416.666000	541.096000	484.225000	352.126000	517.873000	525.998000	238.440000	573.335000
2088	8.695830	795.175000	1565.164000	826.630000	795.418000	1583.320000	526.146000	682.800000	1304.302000	645.773000	697.385000	1237.352000	621.103000	701.278000	1206.719000	689.279000	910.308000	1057.753000	792.091000	926.531000	1031.121000	550.907000	709.381000	1081.166000	707.218000	717.334000	1070.143000	608.144000	708.773000	1049.679000	772.408000	725.159000	1025.221000	554.166000	936.932000	722.446000	839.107000	864.004000	704.038000	834.384000	961.425000	657.953000	823.656000	883.721000	638.732000	822.037000	931.819000	514.586000	797.171000	968.274000	450.389000	745.877000	895.793000	379.280000	794.965000	826.146000	401.036000	802.943000	860.601000	321.168000	783.292000	807.669000	350.924000	792.400000	758.632000	215.229000	747.777000	708.140000	122.564000	728.120000	641.717000	105.818000	684.717000	645.008000	63.218000	719.945000	627.320000	56.798000	678.757000	765.561000	67.639000	748.916000	808.979000	35.859000	769.386000	923.945000	65.924000	703.871000	1014.228000	717.898000	519.098000	945.096000	690.436000	502.275000	1035.189000	650.638000	523.475000	963.577000	621.317000	512.327000	998.479000	514.442000	530.789000	984.013000	445.273000	577.929000	879.908000	484.103000	519.290000	860.826000	550.281000	534.559000	814.935000	472.177000	529.150000	810.630000	536.496000	538.993000	668.648000	474.477000	552.522000	572.632000	466.757000	558.749000	559.649000	515.558000	605.727000	519.964000	504.417000	567.824000	509.655000	524.419000	603.811000	526.632000	408.351000	540.921000	500.728000	342.752000	517.807000	545.961000	231.039000	574.456000
2089	8.700000	797.251000	1566.469000	827.095000	793.754000	1584.317000	526.571000	682.330000	1305.504000	648.004000	696.625000	1238.603000	623.124000	701.369000	1207.819000	691.280000	909.756000	1057.631000	791.707000	924.944000	1032.221000	550.079000	708.567000	1082.271000	708.240000	716.156000	1071.366000	609.134000	708.031000	1050.703000	773.338000	723.762000	1026.397000	555.178000	930.839000	720.707000	838.612000	857.229000	703.640000	834.357000	953.695000	655.865000	823.122000	875.636000	638.013000	821.963000	920.252000	512.587000	796.971000	956.211000	447.990000	746.118000	882.791000	377.697000	794.743000	813.362000	400.278000	802.843000	846.979000	319.971000	783.018000	794.372000	350.370000	792.295000	743.375000	215.526000	747.673000	691.766000	123.237000	728.064000	624.934000	106.670000	684.419000	627.831000	64.152000	719.948000	610.418000	57.841000	678.733000	748.619000	67.797000	748.898000	791.868000	35.657000	769.310000	906.853000	65.521000	703.807000	1019.732000	723.858000	518.948000	951.229000	694.708000	502.457000	1042.567000	657.208000	523.530000	972.060000	626.138000	512.812000	1009.110000	519.730000	531.694000	996.660000	450.312000	579.000000	891.738000	486.441000	519.877000	870.252000	552.079000	535.207000	826.920000	472.565000	529.392000	821.187000	536.767000	539.294000	680.528000	470.710000	552.392000	584.536000	459.946000	558.253000	569.498000	508.517000	604.794000	530.549000	495.709000	566.747000	519.268000	515.419000	602.780000	540.778000	399.601000	540.577000	517.392000	333.033000	517.942000	566.457000	223.534000	575.574000
2090	8.704170	799.556000	1568.171000	827.468000	792.000000	1585.367000	527.079000	681.992000	1306.939000	650.318000	695.843000	1239.697000	624.798000	701.093000	1209.241000	693.328000	909.285000	1057.530000	791.444000	923.593000	1033.605000	549.544000	708.106000	1083.593000	709.103000	714.787000	1072.915000	609.947000	707.260000	1051.846000	774.168000	722.714000	1027.886000	555.963000	924.106000	719.074000	838.075000	850.406000	703.521000	834.232000	945.611000	653.687000	822.615000	867.281000	637.403000	821.794000	908.493000	511.091000	796.771000	943.839000	445.740000	746.091000	869.723000	376.425000	794.501000	800.674000	399.855000	802.707000	833.211000	319.038000	782.737000	780.888000	350.114000	792.409000	728.017000	216.093000	747.816000	675.396000	124.043000	728.069000	608.343000	108.044000	684.477000	611.238000	65.220000	719.736000	593.624000	59.123000	678.498000	731.754000	67.942000	748.790000	774.831000	35.619000	769.313000	889.888000	65.160000	703.663000	1025.187000	730.094000	518.764000	957.161000	699.344000	502.672000	1049.520000	663.970000	523.554000	979.345000	631.083000	513.161000	1019.449000	525.677000	532.168000	1008.856000	456.093000	579.612000	903.177000	488.975000	520.390000	879.796000	553.933000	535.686000	838.654000	473.414000	529.515000	831.104000	537.249000	539.529000	692.295000	466.671000	552.504000	596.609000	452.888000	557.622000	579.370000	500.937000	604.026000	540.923000	486.389000	566.053000	528.826000	506.056000	601.916000	554.971000	390.656000	540.235000	534.327000	322.969000	518.113000	587.501000	215.963000	576.596000
